<svg width="1440" height="1024" viewBox="0 0 1440 1024" fill="none" xmlns="http://www.w3.org/2000/svg">
<rect width="1440" height="1024" fill="#E5E5E5"/>
<rect width="1440" height="1024" fill="white"/>
<path d="M426.4 320.2C426.667 321.467 426.667 322.8 426.4 324.2C426.267 324.867 426.133 325.533 426 326.2C425.933 326.8 425.833 327.433 425.7 328.1L425.6 328.5C424.667 332.633 423.6 337 422.4 341.6C421.267 346.133 420.233 350.433 419.3 354.5C418.5 357.833 417.667 361.5 416.8 365.5C415.933 369.5 415.033 373.167 414.1 376.5C413.767 377.633 413.4 378.767 413 379.9C412.667 381.033 412.233 382.167 411.7 383.3C411.233 384.3 410.667 385.2 410 386C409.4 386.733 408.7 387.267 407.9 387.6C407.1 388 406.233 388.133 405.3 388C404.433 387.933 403.467 387.533 402.4 386.8C400.8 385.667 399.6 384.1 398.8 382.1C398.067 380.1 397.3 378.267 396.5 376.6C396.233 376.133 395.833 375.1 395.3 373.5C394.767 371.9 394.2 370.167 393.6 368.3C393 366.367 392.4 364.533 391.8 362.8C391.267 361 390.8 359.667 390.4 358.8C389.8 360.267 389.2 361.933 388.6 363.8C388 365.667 387.433 367.5 386.9 369.3C386.367 371.1 385.867 372.733 385.4 374.2C385 375.6 384.7 376.633 384.5 377.3C383.967 378.633 383.367 380.1 382.7 381.7C382.1 383.3 381.333 384.667 380.4 385.8C379.533 386.933 378.467 387.667 377.2 388C375.933 388.4 374.433 388.033 372.7 386.9C371.367 386.1 370.433 384.967 369.9 383.5C369.567 382.567 369.233 381.667 368.9 380.8C368.567 379.933 368.3 379.033 368.1 378.1L366.1 370.6L362 354.5C361.467 352.433 360.933 350.333 360.4 348.2C359.933 346 359.367 343.733 358.7 341.4C358.367 340.267 358.067 339.167 357.8 338.1C357.6 336.967 357.367 335.767 357.1 334.5C356.9 333.167 356.633 331.667 356.3 330C356.033 328.333 355.7 326.4 355.3 324.2C355.167 323.467 355.067 322.8 355 322.2C355 321.533 355.067 320.867 355.2 320.2C355.333 319.2 355.8 318.333 356.6 317.6C356.933 317.267 357.333 317 357.8 316.8C358.267 316.6 358.767 316.433 359.3 316.3C360.1 316.033 360.933 315.9 361.8 315.9C362.6 315.9 363.433 316.167 364.3 316.7C364.9 317.033 365.367 317.467 365.7 318L366.9 320.1C367.033 320.567 367.167 321 367.3 321.4C367.433 321.733 367.567 322.1 367.7 322.5C367.833 322.967 367.933 323.4 368 323.8C368.067 324.133 368.133 324.467 368.2 324.8C368.8 328.267 369.533 331.633 370.4 334.9C371.267 338.167 372.067 341.3 372.8 344.3C373.067 345.5 373.4 347 373.8 348.8C374.2 350.533 374.6 352.367 375 354.3C375.4 356.167 375.8 357.967 376.2 359.7C376.6 361.433 377 362.8 377.4 363.8C378.267 360.8 379.133 357.8 380 354.8C380.933 351.8 381.933 348.767 383 345.7C383.533 344.1 384.067 342.667 384.6 341.4C385.2 340.067 385.867 338.967 386.6 338.1C387.333 337.233 388.167 336.667 389.1 336.4C390.033 336.133 391.133 336.233 392.4 336.7C393.533 337.167 394.533 338.167 395.4 339.7C396.267 341.233 397.033 342.8 397.7 344.4C398.3 345.867 398.867 347.433 399.4 349.1C400 350.7 400.567 352.3 401.1 353.9C401.7 355.433 402.267 356.9 402.8 358.3C403.333 359.7 403.867 360.9 404.4 361.9C404.6 361.167 404.833 360.233 405.1 359.1C405.367 357.967 405.633 356.767 405.9 355.5C406.233 354.167 406.533 352.867 406.8 351.6C407.067 350.333 407.333 349.167 407.6 348.1C408.467 344.5 409.367 340.9 410.3 337.3C411.233 333.633 412.133 330.033 413 326.5L413.5 324.8C413.633 324.467 413.7 324.133 413.7 323.8C413.767 323.4 413.867 322.967 414 322.5C414.133 322.1 414.267 321.733 414.4 321.4C414.533 321 414.667 320.567 414.8 320.1C414.933 319.767 415.067 319.433 415.2 319.1C415.4 318.7 415.633 318.333 415.9 318C416.1 317.667 416.333 317.4 416.6 317.2C416.867 317 417.133 316.833 417.4 316.7C418.333 316.167 419.133 315.9 419.8 315.9C420.667 315.9 421.5 316.033 422.3 316.3C423.367 316.5 424.333 316.933 425.2 317.6C425.867 318.267 426.267 319.133 426.4 320.2ZM437.288 349.1C437.288 350.967 437.288 353.067 437.288 355.4C437.354 357.733 437.388 360.167 437.388 362.7C437.388 365.167 437.388 367.633 437.388 370.1C437.388 372.5 437.354 374.733 437.288 376.8C437.221 377.8 437.121 378.9 436.988 380.1C436.854 381.233 436.588 382.3 436.188 383.3C435.788 384.3 435.154 385.133 434.288 385.8C433.488 386.4 432.388 386.667 430.988 386.6C428.921 386.467 427.421 385.567 426.488 383.9C425.621 382.233 425.121 379.9 424.988 376.9C424.988 375.367 424.954 373.6 424.888 371.6C424.888 369.6 424.854 367.567 424.788 365.5C424.788 363.433 424.788 361.433 424.788 359.5C424.788 357.5 424.788 355.7 424.788 354.1C424.788 353.167 424.754 352.033 424.688 350.7C424.688 349.367 424.721 348 424.788 346.6C424.854 345.2 425.021 343.867 425.288 342.6C425.554 341.267 425.988 340.167 426.588 339.3C427.054 338.767 427.721 338.367 428.588 338.1C429.454 337.767 430.354 337.6 431.288 337.6C432.288 337.6 433.221 337.767 434.088 338.1C435.021 338.433 435.688 338.9 436.088 339.5C436.354 339.9 436.554 340.467 436.688 341.2C436.821 341.933 436.921 342.767 436.988 343.7C437.121 344.567 437.188 345.5 437.188 346.5C437.254 347.433 437.288 348.3 437.288 349.1ZM433.488 328.9C431.421 329.433 429.688 329.233 428.288 328.3C426.954 327.3 426.121 325.833 425.788 323.9C425.521 322.5 425.621 321.267 426.088 320.2C426.554 319.133 427.254 318.333 428.188 317.8C429.121 317.2 430.188 316.933 431.388 317C432.588 317.067 433.788 317.533 434.988 318.4C436.121 319.2 436.921 320.133 437.388 321.2C437.921 322.267 438.088 323.3 437.888 324.3C437.754 325.3 437.321 326.233 436.588 327.1C435.854 327.9 434.821 328.5 433.488 328.9ZM450.351 379C450.284 379.333 450.217 379.667 450.151 380C450.151 380.267 450.151 380.567 450.151 380.9L449.551 383C449.417 383.267 449.317 383.433 449.251 383.5L448.951 384.1C448.617 384.833 448.017 385.433 447.151 385.9C445.551 386.7 443.851 386.9 442.051 386.5C440.917 386.367 440.017 386.033 439.351 385.5C438.684 385.033 438.217 384.467 437.951 383.8C437.684 383.133 437.484 382.467 437.351 381.8C437.151 381.133 437.051 380.533 437.051 380V324C437.051 323.533 437.051 323.133 437.051 322.8C437.117 322.4 437.184 322.033 437.251 321.7C437.317 321.233 437.384 320.833 437.451 320.5C437.584 320.167 437.717 319.8 437.851 319.4C438.051 318.733 438.417 318.2 438.951 317.8C439.751 317.2 440.517 316.867 441.251 316.8C441.717 316.667 442.151 316.6 442.551 316.6C442.951 316.533 443.417 316.5 443.951 316.5C444.884 316.5 445.951 316.767 447.151 317.3C448.084 317.833 448.751 318.567 449.151 319.5C449.817 320.833 450.151 322.067 450.151 323.2C450.217 323.867 450.251 324.867 450.251 326.2C450.317 327.533 450.351 328.533 450.351 329.2V329.6C450.484 331.733 450.551 333.8 450.551 335.8C450.551 337.733 450.517 339.867 450.451 342.2C450.451 344.467 450.417 346.667 450.351 348.8C450.351 350.867 450.351 352.933 450.351 355V376C450.351 376.267 450.351 376.533 450.351 376.8C450.417 377 450.451 377.233 450.451 377.5C450.451 378.167 450.417 378.667 450.351 379ZM479.735 317.1C481.002 316.767 482.102 316.733 483.035 317C484.035 317.2 484.868 317.633 485.535 318.3C486.268 318.967 486.802 319.8 487.135 320.8C487.535 321.8 487.735 322.9 487.735 324.1C487.802 327.433 487.802 330.033 487.735 331.9C487.735 333.767 487.735 335.4 487.735 336.8V367.5C487.735 371.1 487.735 374.1 487.735 376.5C487.735 378.9 487.602 380.867 487.335 382.4C487.135 383.867 486.735 384.967 486.135 385.7C485.602 386.433 484.768 386.933 483.635 387.2C482.502 387.533 481.002 387.7 479.135 387.7C477.335 387.7 475.068 387.7 472.335 387.7C465.135 387.7 459.435 386 455.235 382.6C451.102 379.2 448.902 373.8 448.635 366.4C448.502 363.2 448.902 360.267 449.835 357.6C450.768 354.933 452.135 352.667 453.935 350.8C455.802 348.867 458.068 347.4 460.735 346.4C463.468 345.333 466.568 344.833 470.035 344.9H475.535V327C475.535 325.933 475.535 324.9 475.535 323.9C475.535 322.833 475.635 321.867 475.835 321C476.035 320.067 476.435 319.267 477.035 318.6C477.635 317.933 478.535 317.433 479.735 317.1ZM462.335 372.6C463.735 374.533 466.268 375.6 469.935 375.8C470.668 375.867 471.368 375.9 472.035 375.9C472.702 375.833 473.302 375.733 473.835 375.6C474.435 375.533 475.002 375.433 475.535 375.3V356.8C473.202 356.4 471.068 356.167 469.135 356.1C467.268 355.967 465.402 356.633 463.535 358.1C462.535 358.9 461.768 359.933 461.235 361.2C460.702 362.4 460.402 363.7 460.335 365.1C460.268 366.433 460.402 367.767 460.735 369.1C461.068 370.433 461.602 371.6 462.335 372.6ZM520.401 373.3C521.201 373.1 522.001 372.967 522.801 372.9C523.667 372.833 524.434 372.933 525.101 373.2C525.834 373.467 526.434 373.933 526.901 374.6C527.367 375.2 527.601 376.067 527.601 377.2C527.601 378 527.401 378.767 527.001 379.5C526.601 380.233 526.101 380.9 525.501 381.5C524.901 382.1 524.234 382.633 523.501 383.1C522.767 383.5 522.067 383.833 521.401 384.1C519.467 384.967 517.234 385.633 514.701 386.1C512.234 386.567 509.667 386.733 507.001 386.6C503.401 386.467 499.934 385.767 496.601 384.5C493.334 383.167 490.767 381 488.901 378C487.167 375.067 486.134 371.8 485.801 368.2C485.467 364.6 485.634 361.2 486.301 358C487.034 354.133 488.267 351 490.001 348.6C491.801 346.133 493.934 344.167 496.401 342.7C499.401 340.967 502.767 340.067 506.501 340C510.234 339.933 513.801 340.667 517.201 342.2C519.467 343.2 521.501 344.567 523.301 346.3C525.101 347.967 526.467 350 527.401 352.4C527.667 353 527.867 353.733 528.001 354.6C528.201 355.467 528.334 356.4 528.401 357.4C528.467 358.333 528.467 359.267 528.401 360.2C528.334 361.133 528.167 361.967 527.901 362.7C527.501 363.9 527.001 364.833 526.401 365.5C525.801 366.167 525.034 366.667 524.101 367C523.167 367.333 522.034 367.567 520.701 367.7C519.434 367.767 517.901 367.833 516.101 367.9C514.501 367.967 513.001 368 511.601 368C510.201 368 508.767 368 507.301 368C505.834 367.933 504.301 367.9 502.701 367.9C501.167 367.833 499.434 367.767 497.501 367.7C497.301 369.033 497.467 370.2 498.001 371.2C498.601 372.133 499.401 372.933 500.401 373.6C501.401 374.2 502.534 374.667 503.801 375C505.067 375.333 506.301 375.533 507.501 375.6C509.767 375.733 511.934 375.567 514.001 375.1C516.067 374.567 518.201 373.967 520.401 373.3ZM516.101 353.9C514.834 352.433 513.501 351.367 512.101 350.7C511.034 350.233 509.901 350.033 508.701 350.1C507.567 350.1 506.467 350.267 505.401 350.6C503.467 351.067 501.834 352.067 500.501 353.6C500.367 353.733 500.134 354.067 499.801 354.6C499.467 355.067 499.134 355.567 498.801 356.1C498.534 356.633 498.334 357.133 498.201 357.6C498.067 358.067 498.134 358.3 498.401 358.3H518.001C517.934 357.367 517.767 356.6 517.501 356C517.234 355.333 516.767 354.633 516.101 353.9ZM526.584 351.6C526.584 350.8 526.584 349.9 526.584 348.9C526.584 347.833 526.618 346.767 526.684 345.7C526.751 344.567 526.851 343.5 526.984 342.5C527.184 341.433 527.451 340.5 527.784 339.7C528.318 338.5 529.151 337.7 530.284 337.3C531.418 336.833 532.651 336.633 533.984 336.7C535.384 336.7 536.484 336.933 537.284 337.4C538.084 337.867 538.684 338.5 539.084 339.3C539.484 340.033 539.718 340.9 539.784 341.9C539.918 342.833 539.984 343.833 539.984 344.9C540.584 343.833 541.384 342.967 542.384 342.3C543.451 341.633 544.518 341.1 545.584 340.7C546.651 340.3 547.618 340.033 548.484 339.9C549.351 339.7 549.851 339.6 549.984 339.6C551.651 339.467 553.151 339.433 554.484 339.5C555.884 339.567 557.418 339.867 559.084 340.4C560.151 340.8 561.251 341.367 562.384 342.1C563.518 342.767 564.518 343.567 565.384 344.5C566.251 345.433 566.818 346.467 567.084 347.6C567.418 348.667 567.284 349.8 566.684 351C565.751 352.667 564.718 353.5 563.584 353.5C562.451 353.433 561.218 353.233 559.884 352.9C559.151 352.767 558.284 352.467 557.284 352C556.284 351.533 555.418 351.233 554.684 351.1C552.418 350.767 550.418 350.933 548.684 351.6C546.951 352.267 545.451 353.067 544.184 354C542.718 355.133 541.451 356.433 540.384 357.9V372.3C540.384 374.1 540.351 375.967 540.284 377.9C540.284 379.833 540.018 381.6 539.484 383.2C539.018 384.733 538.184 386 536.984 387C535.851 387.933 534.184 388.333 531.984 388.2C530.784 388.133 529.718 387.567 528.784 386.5C527.851 385.367 527.284 384.267 527.084 383.2C526.951 382.2 526.851 381 526.784 379.6C526.718 378.2 526.651 376.733 526.584 375.2C526.584 373.667 526.584 372.133 526.584 370.6C526.584 369 526.584 367.533 526.584 366.2V351.6ZM617.913 346.8C618.046 349 618.013 351.267 617.812 353.6C617.679 355.933 617.446 358.2 617.113 360.4C616.446 364.2 615.213 367.9 613.413 371.5C611.613 375.1 608.979 378.167 605.513 380.7C601.913 383.367 597.813 385.2 593.213 386.2C588.613 387.133 584.046 387.7 579.513 387.9C577.979 388.033 576.413 388.067 574.813 388C573.279 388 571.779 387.833 570.313 387.5C569.113 387.3 568.213 386.933 567.613 386.4C567.279 386.2 567.013 385.933 566.813 385.6C566.613 385.267 566.446 384.933 566.313 384.6C566.113 384.267 565.946 383.933 565.813 383.6C565.746 383.2 565.646 382.8 565.513 382.4C565.446 382.067 565.379 381.767 565.313 381.5C565.313 381.167 565.313 380.867 565.313 380.6V323.5C565.313 323.033 565.313 322.6 565.313 322.2C565.313 321.8 565.379 321.4 565.513 321C565.646 320.067 565.846 319.3 566.113 318.7C566.379 317.9 566.746 317.333 567.213 317C567.613 316.667 568.013 316.433 568.413 316.3C568.813 316.1 569.179 315.933 569.513 315.8C569.913 315.667 570.313 315.667 570.713 315.8C571.179 315.867 571.679 315.767 572.213 315.5L588.913 315.9C593.313 316.033 597.246 317.067 600.713 319C604.179 320.867 607.146 323.267 609.613 326.2C612.079 329.133 614.013 332.433 615.413 336.1C616.813 339.7 617.646 343.267 617.913 346.8ZM599.313 365.8C600.579 363.8 601.513 361.5 602.113 358.9C602.713 356.3 602.979 353.667 602.913 351C602.846 348.267 602.479 345.633 601.813 343.1C601.146 340.5 600.213 338.2 599.013 336.2C598.079 334.733 596.879 333.533 595.413 332.6C593.946 331.667 592.313 330.967 590.513 330.5C588.713 329.967 586.779 329.6 584.713 329.4C582.713 329.2 580.746 329.1 578.813 329.1C578.879 331.033 578.913 332.9 578.913 334.7C578.913 336.5 578.913 338.4 578.913 340.4C578.846 342.8 578.813 345.133 578.813 347.4C578.813 349.667 578.813 351.867 578.813 354V374.4C580.879 374.333 582.846 374.233 584.713 374.1C586.646 373.9 588.479 373.5 590.213 372.9C592.013 372.3 593.646 371.467 595.113 370.4C596.646 369.267 598.046 367.733 599.313 365.8ZM650.752 373.3C651.552 373.1 652.352 372.967 653.152 372.9C654.019 372.833 654.786 372.933 655.452 373.2C656.186 373.467 656.786 373.933 657.252 374.6C657.719 375.2 657.952 376.067 657.952 377.2C657.952 378 657.752 378.767 657.352 379.5C656.952 380.233 656.452 380.9 655.852 381.5C655.252 382.1 654.586 382.633 653.852 383.1C653.119 383.5 652.419 383.833 651.752 384.1C649.819 384.967 647.586 385.633 645.052 386.1C642.586 386.567 640.019 386.733 637.352 386.6C633.752 386.467 630.286 385.767 626.952 384.5C623.686 383.167 621.119 381 619.252 378C617.519 375.067 616.486 371.8 616.152 368.2C615.819 364.6 615.986 361.2 616.652 358C617.386 354.133 618.619 351 620.352 348.6C622.152 346.133 624.286 344.167 626.752 342.7C629.752 340.967 633.119 340.067 636.852 340C640.586 339.933 644.152 340.667 647.552 342.2C649.819 343.2 651.852 344.567 653.652 346.3C655.452 347.967 656.819 350 657.752 352.4C658.019 353 658.219 353.733 658.352 354.6C658.552 355.467 658.686 356.4 658.752 357.4C658.819 358.333 658.819 359.267 658.752 360.2C658.686 361.133 658.519 361.967 658.252 362.7C657.852 363.9 657.352 364.833 656.752 365.5C656.152 366.167 655.386 366.667 654.452 367C653.519 367.333 652.386 367.567 651.052 367.7C649.786 367.767 648.252 367.833 646.452 367.9C644.852 367.967 643.352 368 641.952 368C640.552 368 639.119 368 637.652 368C636.186 367.933 634.652 367.9 633.052 367.9C631.519 367.833 629.786 367.767 627.852 367.7C627.652 369.033 627.819 370.2 628.352 371.2C628.952 372.133 629.752 372.933 630.752 373.6C631.752 374.2 632.886 374.667 634.152 375C635.419 375.333 636.652 375.533 637.852 375.6C640.119 375.733 642.286 375.567 644.352 375.1C646.419 374.567 648.552 373.967 650.752 373.3ZM646.452 353.9C645.186 352.433 643.852 351.367 642.452 350.7C641.386 350.233 640.252 350.033 639.052 350.1C637.919 350.1 636.819 350.267 635.752 350.6C633.819 351.067 632.186 352.067 630.852 353.6C630.719 353.733 630.486 354.067 630.152 354.6C629.819 355.067 629.486 355.567 629.152 356.1C628.886 356.633 628.686 357.133 628.552 357.6C628.419 358.067 628.486 358.3 628.752 358.3H648.352C648.286 357.367 648.119 356.6 647.852 356C647.586 355.333 647.119 354.633 646.452 353.9ZM701.336 343.2C701.603 344 701.669 344.9 701.536 345.9C701.403 346.9 701.169 347.933 700.836 349C700.503 350 700.103 351 699.636 352C699.236 352.933 698.869 353.767 698.536 354.5C696.803 358.033 695.169 361.5 693.636 364.9C692.103 368.3 690.303 372 688.236 376C687.836 376.8 687.369 377.767 686.836 378.9C686.369 379.967 685.836 381.033 685.236 382.1C684.636 383.1 683.969 384.033 683.236 384.9C682.569 385.767 681.836 386.4 681.036 386.8C680.369 387.2 679.703 387.367 679.036 387.3C678.503 387.433 677.903 387.267 677.236 386.8C676.436 386.4 675.669 385.767 674.936 384.9C674.269 384.033 673.636 383.1 673.036 382.1C672.436 381.033 671.869 379.967 671.336 378.9C670.869 377.767 670.436 376.8 670.036 376C669.236 374.467 668.469 373.033 667.736 371.7C667.069 370.367 666.336 368.933 665.536 367.4C664.803 365.8 663.969 364 663.036 362C662.103 359.933 661.003 357.433 659.736 354.5C659.403 353.7 659.036 352.867 658.636 352C658.236 351.133 657.869 350.2 657.536 349.2C657.269 348.2 657.069 347.2 656.936 346.2C656.869 345.133 656.936 344.067 657.136 343C657.336 342 657.836 341.2 658.636 340.6C659.436 340 660.336 339.6 661.336 339.4C662.336 339.2 663.336 339.233 664.336 339.5C665.336 339.7 666.136 340.133 666.736 340.8C667.336 341.4 667.903 342.2 668.436 343.2C668.969 344.2 669.469 345.267 669.936 346.4C670.469 347.467 670.936 348.567 671.336 349.7C671.803 350.767 672.236 351.7 672.636 352.5C673.569 354.433 674.603 356.533 675.736 358.8C676.936 361.067 678.003 363.167 678.936 365.1C679.603 363.567 680.203 362.3 680.736 361.3C681.269 360.233 681.769 359.2 682.236 358.2C682.769 357.2 683.303 356.1 683.836 354.9C684.436 353.7 685.169 352.167 686.036 350.3C686.836 348.567 687.636 346.867 688.436 345.2C689.303 343.533 690.336 342.067 691.536 340.8C692.136 340.133 692.903 339.7 693.836 339.5C694.769 339.233 695.736 339.2 696.736 339.4C697.736 339.6 698.636 340.033 699.436 340.7C700.303 341.3 700.936 342.133 701.336 343.2Z" fill="black"/>
<g style="mix-blend-mode:exclusion">
<path d="M684 389L740.292 329.712H627.708L684 389Z" fill="#3A3838"/>
<path d="M688.864 318.964C688.864 332.75 674.61 343.927 657.027 343.927C639.444 343.927 625.19 332.75 625.19 318.964C625.19 305.177 639.444 294 657.027 294C674.61 294 688.864 305.177 688.864 318.964Z" fill="#3A3838"/>
<path d="M742.81 318.964C742.81 332.75 728.952 343.927 711.857 343.927C694.763 343.927 680.905 332.75 680.905 318.964C680.905 305.177 694.763 294 711.857 294C728.952 294 742.81 305.177 742.81 318.964Z" fill="#3A3838"/>
</g>
</svg>
